<svg class="animated" id="freepik_stories-wallet" xmlns="http://www.w3.org/2000/svg" viewBox="0 0 500 500" version="1.1" xmlns:xlink="http://www.w3.org/1999/xlink" xmlns:svgjs="http://svgjs.com/svgjs"><style>svg#freepik_stories-wallet:not(.animated) .animable {opacity: 0;}svg#freepik_stories-wallet.animated #freepik--Character--inject-7 {animation: 1.5s 1 forwards ease-in slideLeft,3s Infinite  linear floating;animation-delay: 0s,1.5s;}svg#freepik_stories-wallet.animated #el1wi3w449xi6 {animation: 1.5s 1 forwards ease-in slideLeft;animation-delay: 0s;}svg#freepik_stories-wallet.animated #elxckkvulw92d {animation: 1.5s 1 forwards ease-in slideLeft;animation-delay: 0.01875s;opacity: 0}svg#freepik_stories-wallet.animated #elxjx0gh74nqa {animation: 1.5s 1 forwards ease-in slideLeft;animation-delay: 0.0375s;opacity: 0}svg#freepik_stories-wallet.animated #elg0xs7soxnmi {animation: 1.5s 1 forwards ease-in slideLeft;animation-delay: 0.056249999999999994s;opacity: 0}svg#freepik_stories-wallet.animated #el5ap2w4vujpx {animation: 1.5s 1 forwards ease-in slideLeft;animation-delay: 0.075s;opacity: 0}svg#freepik_stories-wallet.animated #el75z6kmj0gjk {animation: 1.5s 1 forwards ease-in slideLeft;animation-delay: 0.09375s;opacity: 0}svg#freepik_stories-wallet.animated #el77jb775b01h {animation: 1.5s 1 forwards ease-in slideLeft;animation-delay: 0.11249999999999999s;opacity: 0}svg#freepik_stories-wallet.animated #elz5e4njos2zs {animation: 1.5s 1 forwards ease-in slideLeft;animation-delay: 0.13125s;opacity: 0}svg#freepik_stories-wallet.animated #eld3zgfk19avp {animation: 1.5s 1 forwards ease-in slideLeft;animation-delay: 0.15s;opacity: 0}svg#freepik_stories-wallet.animated #elmpq2aloon0k {animation: 1.5s 1 forwards ease-in slideLeft;animation-delay: 0.16874999999999998s;opacity: 0}svg#freepik_stories-wallet.animated #elz0xqco0b01 {animation: 1.5s 1 forwards ease-in slideLeft;animation-delay: 0.1875s;opacity: 0}svg#freepik_stories-wallet.animated #el5usl0fked4 {animation: 1.5s 1 forwards ease-in slideLeft;animation-delay: 0.20625s;opacity: 0}svg#freepik_stories-wallet.animated #elkc5dgbregm {animation: 1.5s 1 forwards ease-in slideLeft;animation-delay: 0.22499999999999998s;opacity: 0}svg#freepik_stories-wallet.animated #elk3cq6ubcf8s {animation: 1.5s 1 forwards ease-in slideLeft;animation-delay: 0.24375s;opacity: 0}svg#freepik_stories-wallet.animated #elhxv3cqjqk2k {animation: 1.5s 1 forwards ease-in slideLeft;animation-delay: 0.2625s;opacity: 0}svg#freepik_stories-wallet.animated #eltwaao0zwass {animation: 1.5s 1 forwards ease-in slideLeft;animation-delay: 0.28125s;opacity: 0}svg#freepik_stories-wallet.animated #elx9xd3l1kab {animation: 1.5s 1 forwards ease-in slideLeft;animation-delay: 0.3s;opacity: 0}svg#freepik_stories-wallet.animated #elm28vp9fi8i {animation: 1.5s 1 forwards ease-in slideLeft;animation-delay: 0.31875s;opacity: 0}svg#freepik_stories-wallet.animated #elollfh1y1cpe {animation: 1.5s 1 forwards ease-in slideLeft;animation-delay: 0.33749999999999997s;opacity: 0}svg#freepik_stories-wallet.animated #el3ia30qyltiy {animation: 1.5s 1 forwards ease-in slideLeft;animation-delay: 0.35625s;opacity: 0}svg#freepik_stories-wallet.animated #elm68uupis7yf {animation: 1.5s 1 forwards ease-in slideLeft;animation-delay: 0.375s;opacity: 0}svg#freepik_stories-wallet.animated #el50njspvwwgj {animation: 1.5s 1 forwards ease-in slideLeft;animation-delay: 0.39375s;opacity: 0}svg#freepik_stories-wallet.animated #elqmffkc91cq {animation: 1.5s 1 forwards ease-in slideLeft;animation-delay: 0.4125s;opacity: 0}svg#freepik_stories-wallet.animated #elpawfboqoe4 {animation: 1.5s 1 forwards ease-in slideLeft;animation-delay: 0.43124999999999997s;opacity: 0}svg#freepik_stories-wallet.animated #el5klc1l41s2f {animation: 1.5s 1 forwards ease-in slideLeft;animation-delay: 0.44999999999999996s;opacity: 0}svg#freepik_stories-wallet.animated #elz850reuv51t {animation: 1.5s 1 forwards ease-in slideLeft;animation-delay: 0.46875s;opacity: 0}svg#freepik_stories-wallet.animated #ela5jtni2pbec {animation: 1.5s 1 forwards ease-in slideLeft;animation-delay: 0.4875s;opacity: 0}svg#freepik_stories-wallet.animated #el2yghccp5gq5 {animation: 1.5s 1 forwards ease-in slideLeft;animation-delay: 0.50625s;opacity: 0}svg#freepik_stories-wallet.animated #elx9s0kcjeocb {animation: 1.5s 1 forwards ease-in slideLeft;animation-delay: 0.525s;opacity: 0}svg#freepik_stories-wallet.animated #elpcmxvzn48qe {animation: 1.5s 1 forwards ease-in slideLeft;animation-delay: 0.54375s;opacity: 0}svg#freepik_stories-wallet.animated #elapdu567kjad {animation: 1.5s 1 forwards ease-in slideLeft;animation-delay: 0.5625s;opacity: 0}svg#freepik_stories-wallet.animated #elc8jzpj7919b {animation: 1.5s 1 forwards ease-in slideLeft;animation-delay: 0.5812499999999999s;opacity: 0}svg#freepik_stories-wallet.animated #el3ge8fo05qof {animation: 1.5s 1 forwards ease-in slideLeft;animation-delay: 0.6s;opacity: 0}svg#freepik_stories-wallet.animated #elp2e0g26w77g {animation: 1.5s 1 forwards ease-in slideLeft;animation-delay: 0.61875s;opacity: 0}svg#freepik_stories-wallet.animated #el6wu3g9zz365 {animation: 1.5s 1 forwards ease-in slideLeft;animation-delay: 0.6375s;opacity: 0}svg#freepik_stories-wallet.animated #el2swz0wacobk {animation: 1.5s 1 forwards ease-in slideLeft;animation-delay: 0.65625s;opacity: 0}svg#freepik_stories-wallet.animated #el0pa7sd3hnzs {animation: 1.5s 1 forwards ease-in slideLeft;animation-delay: 0.6749999999999999s;opacity: 0}svg#freepik_stories-wallet.animated #elimldjhazsem {animation: 1.5s 1 forwards ease-in slideLeft;animation-delay: 0.69375s;opacity: 0}svg#freepik_stories-wallet.animated #elunn3p0z70b {animation: 1.5s 1 forwards ease-in slideLeft;animation-delay: 0.7125s;opacity: 0}svg#freepik_stories-wallet.animated #elf0gmne0yzvv {animation: 1.5s 1 forwards ease-in slideLeft;animation-delay: 0.73125s;opacity: 0}svg#freepik_stories-wallet.animated #eltjggd1xh949 {animation: 1.5s 1 forwards ease-in slideLeft;animation-delay: 0.75s;opacity: 0}svg#freepik_stories-wallet.animated #el0xj35sblsc5p {animation: 1.5s 1 forwards ease-in slideLeft;animation-delay: 0.7687499999999999s;opacity: 0}svg#freepik_stories-wallet.animated #elx1b6p4ls7q {animation: 1.5s 1 forwards ease-in slideLeft;animation-delay: 0.7875s;opacity: 0}svg#freepik_stories-wallet.animated #el4oyty0kdfcv {animation: 1.5s 1 forwards ease-in slideLeft;animation-delay: 0.80625s;opacity: 0}svg#freepik_stories-wallet.animated #el292uoqs23lp {animation: 1.5s 1 forwards ease-in slideLeft;animation-delay: 0.825s;opacity: 0}svg#freepik_stories-wallet.animated #eliyln4curqw {animation: 1.5s 1 forwards ease-in slideLeft;animation-delay: 0.84375s;opacity: 0}svg#freepik_stories-wallet.animated #el3q3740apdk7 {animation: 1.5s 1 forwards ease-in slideLeft;animation-delay: 0.8624999999999999s;opacity: 0}svg#freepik_stories-wallet.animated #elrgfcoonwu2g {animation: 1.5s 1 forwards ease-in slideLeft;animation-delay: 0.88125s;opacity: 0}svg#freepik_stories-wallet.animated #eltkx188rku6h {animation: 1.5s 1 forwards ease-in slideLeft;animation-delay: 0.8999999999999999s;opacity: 0}svg#freepik_stories-wallet.animated #elak5rk7s5nu {animation: 1.5s 1 forwards ease-in slideLeft;animation-delay: 0.91875s;opacity: 0}svg#freepik_stories-wallet.animated #elyoc77wv5pej {animation: 1.5s 1 forwards ease-in slideLeft;animation-delay: 0.9375s;opacity: 0}svg#freepik_stories-wallet.animated #el5tajugbsbng {animation: 1.5s 1 forwards ease-in slideLeft;animation-delay: 0.9562499999999999s;opacity: 0}svg#freepik_stories-wallet.animated #elxy1h4mho8z {animation: 1.5s 1 forwards ease-in slideLeft;animation-delay: 0.975s;opacity: 0}svg#freepik_stories-wallet.animated #ele09kuh9wtb {animation: 1.5s 1 forwards ease-in slideLeft;animation-delay: 0.9937499999999999s;opacity: 0}svg#freepik_stories-wallet.animated #ely02lc6he0r {animation: 1.5s 1 forwards ease-in slideLeft;animation-delay: 1.0125s;opacity: 0}svg#freepik_stories-wallet.animated #el4nqyccvfdx8 {animation: 1.5s 1 forwards ease-in slideLeft;animation-delay: 1.03125s;opacity: 0}svg#freepik_stories-wallet.animated #el7kajeakilfw {animation: 1.5s 1 forwards ease-in slideLeft;animation-delay: 1.05s;opacity: 0}svg#freepik_stories-wallet.animated #elaxer4m1scmr {animation: 1.5s 1 forwards ease-in slideLeft;animation-delay: 1.0687499999999999s;opacity: 0}svg#freepik_stories-wallet.animated #elus0icc9x0vd {animation: 1.5s 1 forwards ease-in slideLeft;animation-delay: 1.0875s;opacity: 0}svg#freepik_stories-wallet.animated #el22o0v35sc95i {animation: 1.5s 1 forwards ease-in slideLeft;animation-delay: 1.10625s;opacity: 0}svg#freepik_stories-wallet.animated #elkrdjdg0zzee {animation: 1.5s 1 forwards ease-in slideLeft;animation-delay: 1.125s;opacity: 0}svg#freepik_stories-wallet.animated #el2pqh7xtfwse {animation: 1.5s 1 forwards ease-in slideLeft;animation-delay: 1.14375s;opacity: 0}svg#freepik_stories-wallet.animated #el7vozfeqdx1m {animation: 1.5s 1 forwards ease-in slideLeft;animation-delay: 1.1624999999999999s;opacity: 0}svg#freepik_stories-wallet.animated #elgw4w70e9xl {animation: 1.5s 1 forwards ease-in slideLeft;animation-delay: 1.18125s;opacity: 0}svg#freepik_stories-wallet.animated #elpj32g0k4ry {animation: 1.5s 1 forwards ease-in slideLeft;animation-delay: 1.2s;opacity: 0}svg#freepik_stories-wallet.animated #elhkobxsqgltj {animation: 1.5s 1 forwards ease-in slideLeft;animation-delay: 1.21875s;opacity: 0}svg#freepik_stories-wallet.animated #elcb2kko8surr {animation: 1.5s 1 forwards ease-in slideLeft;animation-delay: 1.2375s;opacity: 0}svg#freepik_stories-wallet.animated #elpn810v62lw {animation: 1.5s 1 forwards ease-in slideLeft;animation-delay: 1.2562499999999999s;opacity: 0}svg#freepik_stories-wallet.animated #ellue86wrusbr {animation: 1.5s 1 forwards ease-in slideLeft;animation-delay: 1.275s;opacity: 0}svg#freepik_stories-wallet.animated #els5qil47yst {animation: 1.5s 1 forwards ease-in slideLeft;animation-delay: 1.29375s;opacity: 0}svg#freepik_stories-wallet.animated #el3lsd68eqizt {animation: 1.5s 1 forwards ease-in slideLeft;animation-delay: 1.3125s;opacity: 0}svg#freepik_stories-wallet.animated #el3wupnalec35 {animation: 1.5s 1 forwards ease-in slideLeft;animation-delay: 1.33125s;opacity: 0}svg#freepik_stories-wallet.animated #elprr62eqdxwn {animation: 1.5s 1 forwards ease-in slideLeft;animation-delay: 1.3499999999999999s;opacity: 0}svg#freepik_stories-wallet.animated #elmevt32ec13r {animation: 1.5s 1 forwards ease-in slideLeft;animation-delay: 1.36875s;opacity: 0}svg#freepik_stories-wallet.animated #elmvvl6ym48pa {animation: 1.5s 1 forwards ease-in slideLeft;animation-delay: 1.3875s;opacity: 0}svg#freepik_stories-wallet.animated #el61ddcthkh78 {animation: 1.5s 1 forwards ease-in slideLeft;animation-delay: 1.40625s;opacity: 0}svg#freepik_stories-wallet.animated #elgxh29tvt36g {animation: 1.5s 1 forwards ease-in slideLeft;animation-delay: 1.425s;opacity: 0}svg#freepik_stories-wallet.animated #eljhj5tgmpv3 {animation: 1.5s 1 forwards ease-in slideLeft;animation-delay: 1.4437499999999999s;opacity: 0}svg#freepik_stories-wallet.animated #elynowe198p7f {animation: 1.5s 1 forwards ease-in slideLeft;animation-delay: 1.4625s;opacity: 0}svg#freepik_stories-wallet.animated #el096tj39zfglk {animation: 1.5s 1 forwards ease-in slideLeft;animation-delay: 1.48125s;opacity: 0}svg#freepik_stories-wallet.animated #freepik--Wallet--inject-7 {animation: 1.5s 1 forwards ease-in slideLeft,3s Infinite  linear floating;animation-delay: 0s,1.5s;}svg#freepik_stories-wallet.animated #freepik--Coins--inject-7 {animation: 1.5s 1 forwards ease-in slideLeft,3s Infinite  linear floating;animation-delay: 0s,1.5s;}            @keyframes slideLeft {                0% {                    opacity: 0;                    transform: translateX(-30px);                }                100% {                    opacity: 1;                    transform: translateX(0);                }            }                    @keyframes floating {                0% {                    opacity: 1;                    transform: translateY(0px);                }                50% {                    transform: translateY(-10px);                }                100% {                    opacity: 1;                    transform: translateY(0px);                }            }        .animator-hidden { display: none; }</style><g id="freepik--Shadow--inject-7" class="animable animator-hidden" style="transform-origin: 250px 433.09px;"><ellipse cx="250" cy="433.09" rx="208.86" ry="31.66" style="fill: rgb(235, 235, 235); transform-origin: 250px 433.09px;" id="elt44difqngw" class="animable"></ellipse></g><g id="freepik--Floor--inject-7" class="animable animator-hidden" style="transform-origin: 250px 380.21px;"><polygon points="40.1 380.21 92.57 379.96 145.05 379.88 250 379.71 354.95 379.88 407.43 379.96 459.9 380.21 407.43 380.45 354.95 380.54 250 380.71 145.05 380.54 92.57 380.45 40.1 380.21" style="fill: rgb(38, 50, 56); transform-origin: 250px 380.21px;" id="elij1839z0tyr" class="animable"></polygon></g><g id="freepik--Character--inject-7" class="animable" style="transform-origin: 139.088px 266.975px;"><path d="M102.14,196.86s12.31,113.6,12.42,117c.65,18.83.92,72.9.92,72.9l41-.11s1.07-62.36-.67-78.58C153.64,287.4,140.19,197,140.19,197Z" style="fill: rgb(247, 169, 160); transform-origin: 129.473px 291.81px;" id="eln1n055po14o" class="animable"></path><path d="M185.06,431.12c-2.2.74-65.08.72-67.48-.8-.9-.56-1.43-9.73-1.76-20.81-.08-2.39-.13-4.86-.17-7.38-.06-3-.11-6-.13-8.9-.11-13.13,0-24.7,0-24.7l40.93-.1,0,24.69,0,8.91-.2,7.38s24.07,10.78,26.52,12.72S187.25,430.39,185.06,431.12Z" style="fill: rgb(247, 169, 160); transform-origin: 150.733px 400.013px;" id="elbmc36kuvam8" class="animable"></path><path d="M185.06,431.12c-2.2.74-65.08.72-67.48-.8-.9-.56-1.43-9.73-1.76-20.81-.08-2.39-.13-4.86-.17-7.38-.06-3-.11-6-.13-8.9l41-.11,0,8.91-.2,7.38s24.07,10.78,26.52,12.72S187.25,430.39,185.06,431.12Z" style="fill: rgb(235, 235, 235); transform-origin: 150.765px 412.358px;" id="el4mitz439vnl" class="animable"></path><path d="M185.25,431.21c-1.43.48-28.21.64-47.71.29-4.52-.08-8.64-.2-12-.33-4.59-.2-7.67-.44-8.17-.76-1.11-.71-1.67-14.16-2-28.34l41.13-.11-.19,7.42s24.2,10.83,26.67,12.79S187.45,430.47,185.25,431.21Z" style="fill: #4FE27B; transform-origin: 150.783px 416.824px;" id="elqnjuysa5vkn" class="animable"></path><path d="M184.34,428.69c-10.6-.27-53.37-.33-63.86.21-.09,0-.09.07,0,.07,10.49.49,53.26.21,63.86-.11C184.56,428.85,184.56,428.69,184.34,428.69Z" style="fill: rgb(38, 50, 56); transform-origin: 152.459px 428.862px;" id="elabayifj8n45" class="animable"></path><path d="M157.88,407c-4.17-.78-9.27-.14-12.46,2.83-.12.12,0,.29.18.25a58.1,58.1,0,0,1,12.26-2.55A.27.27,0,0,0,157.88,407Z" style="fill: rgb(38, 50, 56); transform-origin: 151.73px 408.391px;" id="elfegas1rpzfw" class="animable"></path><path d="M160.89,408.84c-4.17-.78-9.27-.14-12.46,2.83-.12.11,0,.29.18.24a58.72,58.72,0,0,1,12.26-2.54A.27.27,0,0,0,160.89,408.84Z" style="fill: rgb(38, 50, 56); transform-origin: 154.74px 410.227px;" id="elph55j0l00s" class="animable"></path><path d="M163.9,410.65c-4.17-.78-9.27-.14-12.46,2.83-.12.12,0,.29.18.25a58.1,58.1,0,0,1,12.26-2.55A.27.27,0,0,0,163.9,410.65Z" style="fill: rgb(38, 50, 56); transform-origin: 157.75px 412.041px;" id="elullfmty56tr" class="animable"></path><path d="M166.91,412.47c-4.17-.78-9.27-.14-12.46,2.83-.12.11,0,.29.18.24A58.72,58.72,0,0,1,166.89,413,.27.27,0,0,0,166.91,412.47Z" style="fill: rgb(38, 50, 56); transform-origin: 160.76px 413.857px;" id="el76ucfkt0o5a" class="animable"></path><path d="M114.13,437.38c-2.27.49-64.76-6.44-67-8.21-.84-.66-.36-9.83.53-20.88.19-2.38,10-40.77,10-40.77l42.14,4.39L88,412.65s22.74,13.35,25,15.56S116.38,436.9,114.13,437.38Z" style="fill: rgb(247, 169, 160); transform-origin: 81.0255px 402.462px;" id="el62pd1cz68tm" class="animable"></path><path d="M47.15,429.18c2.21,1.76,64.71,8.69,67,8.21s1-7-1.2-9.18-25-15.57-25-15.57l4.42-15.18-40.77-5.87c-1.78,7.16-3.88,15.8-4,16.7C46.79,419.35,46.32,428.52,47.15,429.18Z" style="fill: rgb(235, 235, 235); transform-origin: 81.0354px 414.502px;" id="elf5em4iz9vkh" class="animable"></path><path d="M114.3,437.5c-1.47.31-28.11-2.47-47.45-5-4.48-.58-8.56-1.15-11.86-1.65-4.54-.7-7.57-1.28-8-1.65-.83-.67-.46-10.08.72-20.95a42.7,42.7,0,0,1,1.67-7.44l40.5,5.36L88,412.62s22.87,13.43,25.1,15.64S116.57,437,114.3,437.5Z" style="fill: #4FE27B; transform-origin: 81.0238px 419.167px;" id="elnua2cqedo3" class="animable"></path><path d="M113.68,434.88c-10.5-1.42-53-6.19-63.5-6.8-.09,0-.09.05,0,.07,10.38,1.64,52.93,6.06,63.49,6.91C113.89,435.07,113.9,434.91,113.68,434.88Z" style="fill: rgb(38, 50, 56); transform-origin: 81.9763px 431.57px;" id="elp46652svfpa" class="animable"></path><path d="M89.76,410.44c-4.06-1.23-9.2-1.15-12.69,1.45-.14.1,0,.29.14.26A58.73,58.73,0,0,1,89.69,411,.27.27,0,0,0,89.76,410.44Z" style="fill: rgb(38, 50, 56); transform-origin: 83.5096px 410.912px;" id="elbe5d6mzyxaq" class="animable"></path><path d="M92.55,412.58c-4.06-1.23-9.2-1.16-12.69,1.44-.14.1,0,.29.15.27a58.58,58.58,0,0,1,12.47-1.19A.27.27,0,0,0,92.55,412.58Z" style="fill: rgb(38, 50, 56); transform-origin: 86.262px 413.049px;" id="eljbzt8ljpb1m" class="animable"></path><path d="M95.34,414.71c-4.06-1.23-9.2-1.15-12.69,1.45-.14.1,0,.29.15.26a58.57,58.57,0,0,1,12.47-1.18A.27.27,0,0,0,95.34,414.71Z" style="fill: rgb(38, 50, 56); transform-origin: 89.0648px 415.182px;" id="el8xlrh9pbwoo" class="animable"></path><path d="M98.14,416.85c-4.06-1.23-9.2-1.16-12.7,1.44-.13.1,0,.29.15.27a58.58,58.58,0,0,1,12.47-1.19A.27.27,0,0,0,98.14,416.85Z" style="fill: rgb(38, 50, 56); transform-origin: 91.8483px 417.319px;" id="elc8s02nvqbfk" class="animable"></path><path d="M138.82,197s-.39,14-6.76,22c-1.52,1.92-8.78,11.18-11.2,13,0,0-6.11,70.34-7.18,83-1.46,17.36-19,74.73-19,74.73l-41.1-5.85s14.15-53.27,18.1-70c.91-3.86,9-80.13,8.41-81.72-6.56-16.48,5.57-35.33,5.57-35.33Z" style="fill: rgb(247, 169, 160); transform-origin: 96.2px 293.28px;" id="el914shkirccu" class="animable"></path><path d="M140.19,197s16.4,106.84,17,112.12c0,0-13.28,6.3-33.4,9.59s-58.57-10.27-58.57-10.27,13.23-72.31,13.23-72.73-4.57-19.91,7.22-38.91Z" style="fill: rgb(38, 50, 56); transform-origin: 111.205px 258.012px;" id="elurkw54oezx" class="animable"></path><path d="M131.2,248.88c-2.09,6.53-4.16,13.09-6.1,19.67s-3.88,13-5.34,19.63c-.83,3.76-1.48,7.54-2.15,11.33a.13.13,0,0,0,.25.06c.94-3.3,2-6.57,2.86-9.89s1.73-6.64,2.56-10c1.65-6.57,3.19-13.17,4.92-19.73,1-3.71,2.06-7.39,3.13-11.07C131.36,248.83,131.23,248.8,131.2,248.88Z" style="fill: rgb(55, 71, 79); transform-origin: 124.472px 274.241px;" id="elpajqemihgip" class="animable"></path><path d="M132.4,239.55c-1.42,2.41-2.75,4.87-4,7.38-.59,1.23-1.16,2.46-1.72,3.7-.29.66-.57,1.33-.84,2a8.83,8.83,0,0,0-.67,1.84c0,.07.08.14.13.07a8.72,8.72,0,0,0,.86-1.59c.32-.64.65-1.28,1-1.93q.91-1.89,1.86-3.75c1.25-2.51,2.51-5,3.79-7.49A.23.23,0,0,0,132.4,239.55Z" style="fill: rgb(55, 71, 79); transform-origin: 129.005px 247px;" id="elouaedl9b6ao" class="animable"></path><path d="M137,97.65s-12.86-4.66-19.71,4.21c-7.71,10-4.14,17.9-5.48,30s-10.9,16.49-9.07,24.88,12.75,7.14,12.75,7.14,2,9.64,11.29,10.53A16,16,0,0,0,141,168.13s6.9,4.07,12.29.71c4.42-2.76,3-10.52,3-10.52s6.59,1.62,8.85-4.22c2.36-6.06-7.62-10.2-10.55-18.09-2.66-7.14-3.88-26.19-7.84-32.42S137,97.65,137,97.65Z" style="fill: rgb(38, 50, 56); transform-origin: 134.003px 135.452px;" id="elsjxxbuma79m" class="animable"></path><path d="M115.34,163.34c-4,.81-8.87.62-11.86-2.56-2.77-2.95-2.34-7.47-.83-10.92,1.65-3.76,4.38-6.92,6.25-10.56a32.92,32.92,0,0,0,3.41-11.55c.51-4.84-.62-9.87.72-14.62,0-.07-.08-.09-.09,0-1.33,4.33-.52,8.9-.91,13.34a33.09,33.09,0,0,1-3.84,12.72c-2,3.74-5,7-6.52,11-1.35,3.48-1.51,7.78,1.07,10.75a9.77,9.77,0,0,0,5.22,3,17.12,17.12,0,0,0,7.43-.34C115.48,163.47,115.44,163.32,115.34,163.34Z" style="fill: rgb(38, 50, 56); transform-origin: 108.076px 138.633px;" id="elqsna7eg05" class="animable"></path><path d="M165.74,146.78a19,19,0,0,0-3.43-3.73,28.36,28.36,0,0,1-3.67-3.92c-4.42-5.91-6.08-13.27-7.68-20.33a85.79,85.79,0,0,0-3.72-13c0-.1-.19,0-.15,0,2.91,7.13,3.45,14.91,5.56,22.26a37.61,37.61,0,0,0,3.95,9.44,24.55,24.55,0,0,0,3,4c1.17,1.25,2.53,2.31,3.77,3.5a10.36,10.36,0,0,1,3.1,4.79,7.86,7.86,0,0,1-.9,6s0,.05.05,0A8.62,8.62,0,0,0,165.74,146.78Z" style="fill: rgb(38, 50, 56); transform-origin: 157.018px 130.784px;" id="elxpnhy8pk2bb" class="animable"></path><path d="M156.06,156.25c0-.09-.18,0-.13.08,1.69,3.28,2.84,7.48.37,10.68a9,9,0,0,1-9,3.19,12.59,12.59,0,0,1-5.58-2.67c-.13-.1-.31.08-.18.19,2.86,2.42,6.84,3.91,10.58,2.82a8.31,8.31,0,0,0,6.13-7.38C158.4,160.66,157.14,158.41,156.06,156.25Z" style="fill: rgb(38, 50, 56); transform-origin: 149.879px 163.558px;" id="eloesjjxsjtup" class="animable"></path><path d="M129.67,147.87c6.13,19.63,17.32,41.18,24.07,43.73,7.21,2.73,35.15-1,44.85-3.45,3.17-.8-6.42-23-9.61-24.48s-25.21,4.52-27.29,4c-1.11-.28-14.51-16.3-24.06-25.77C129.1,133.44,127.67,141.45,129.67,147.87Z" style="fill: rgb(247, 169, 160); transform-origin: 164.047px 165.4px;" id="elwog86n5rp9d" class="animable"></path><path d="M196.2,188.69c3.29-.6,18.12-4.67,22-6.72s14.6-8.78,13.33-11.91-4.57-1.41-4.57-1.41,4.08-3.56,2.51-6.59-6.61-.19-6.61-.19,3.92-4,2.14-6.87-6.37.79-6.37.79,3.76-3.45,1.28-5.23c-3-2.15-9.18,5-13.63,6.95-1,.44-21.12,7.51-21.12,7.51Z" style="fill: rgb(247, 169, 160); transform-origin: 208.397px 169.426px;" id="el8h6rsp81ppj" class="animable"></path><path d="M219,155.48c-4.58,5.25-7.48,6.75-14.05,8.71-.13,0-.1.24,0,.21,6.6-1.34,10.52-2.7,14.28-8.71C219.48,155.4,219.25,155.23,219,155.48Z" style="fill: rgb(38, 50, 56); transform-origin: 212.101px 159.881px;" id="el4ph84fmr1s3" class="animable"></path><path d="M223.22,161.45c-5.23,5-8.37,6.68-15.1,9.24a.1.1,0,0,0,.06.18c6.8-2,10.68-3.41,15.25-9.12C223.63,161.49,223.45,161.22,223.22,161.45Z" style="fill: rgb(38, 50, 56); transform-origin: 215.798px 166.116px;" id="el3ocyohc9izw" class="animable"></path><path d="M226.61,168.77c-5.41,4.5-8.78,6.47-15.62,8.12a.13.13,0,0,0,0,.25c7.15-1,11.36-3.42,15.7-8.19C227,168.62,227,168.48,226.61,168.77Z" style="fill: rgb(38, 50, 56); transform-origin: 218.905px 172.876px;" id="elio8zlgl5vpr" class="animable"></path><path d="M181,164.74s5.63-6.66,8.75-9,18-7,19.17-3.81c1.52,4.07-6.55,8.42-10.78,10,0,0,3.51,9.43-1.6,13.8S181,164.74,181,164.74Z" style="fill: rgb(247, 169, 160); transform-origin: 195.054px 163.681px;" id="el7c159y1x5yo" class="animable"></path><path d="M208.93,153.14c-1.3,4.72-7,6.48-11,8.35a.4.4,0,0,0-.14.64c1.21,4.05,1.74,10.12-1,13.61a.1.1,0,0,0,.15.14c3.49-3.34,3.46-9.34,1.85-13.69,4.12-1.86,9.75-3.87,10.21-9A0,0,0,0,0,208.93,153.14Z" style="fill: rgb(38, 50, 56); transform-origin: 202.881px 164.526px;" id="el0aa15x2qlisv" class="animable"></path><path d="M154.1,156.24l-16.82,14.59s-8.15-16.09-9.11-26,3.8-9,9.49-4.37S154.1,156.24,154.1,156.24Z" style="fill: #4FE27B; transform-origin: 141.073px 153.972px;" id="elt2gs8rqdeb" class="animable"></path><path d="M138.22,151.32a.87.87,0,1,1-.87-.87A.87.87,0,0,1,138.22,151.32Zm10.29-.76a.86.86,0,1,0,1.16,1.17Zm-16.93-8.67a.87.87,0,1,0,.87.87A.87.87,0,0,0,131.58,141.89Zm5.77,25.92a.87.87,0,1,0,.87.87A.87.87,0,0,0,137.35,167.81Zm5.78-8.56a.87.87,0,1,0,.87.87A.87.87,0,0,0,143.13,159.25Z" style="fill: rgb(255, 255, 255); transform-origin: 140.19px 155.72px;" id="el3cpalt74a1b" class="animable"></path><path d="M150.38,154.55c.11-.1.21-.06.11,0a148.92,148.92,0,0,1-14.18,12.19s-.07,0,0-.06C138.33,164.43,149.19,155.62,150.38,154.55Z" style="fill: rgb(38, 50, 56); transform-origin: 143.405px 160.615px;" id="elt9fv1uoz0lh" class="animable"></path><g id="elpnzcp67r71" class=""><path d="M148.41,161.18l-11.13,9.65s-8.15-16.09-9.11-26c-.27-2.81-.09-4.75.45-6Z" style="opacity: 0.1; transform-origin: 138.228px 154.83px;" class="animable" id="elpjtrjj5ikm"></path></g><path d="M140.76,181.58,140.19,197l-54.55-.2s12.3-45.59,28.56-57.68c8.14-6.05,16-4,20,2.07,1,1.54,12.07,20.69,12.21,28.7C146.57,176.93,140.76,181.58,140.76,181.58Z" style="fill: #4FE27B; transform-origin: 116.027px 166.241px;" id="el83prhecxgau" class="animable"></path><path d="M115.12,151.32a.87.87,0,1,1-.87-.87A.87.87,0,0,1,115.12,151.32Zm10.68-.87a.87.87,0,1,0,.87.87A.87.87,0,0,0,125.8,150.45Zm11.55,0a.87.87,0,1,0,.87.87A.87.87,0,0,0,137.35,150.45ZM120,141.89a.87.87,0,1,0,.87.87A.87.87,0,0,0,120,141.89Zm11.55,0a.87.87,0,1,0,.87.87A.87.87,0,0,0,131.58,141.89ZM102.7,167.81a.87.87,0,1,0,.87.87A.87.87,0,0,0,102.7,167.81Zm11.55,0a.87.87,0,1,0,.87.87A.87.87,0,0,0,114.25,167.81Zm11.55,0a.87.87,0,1,0,.87.87A.87.87,0,0,0,125.8,167.81Zm11.55,0a.87.87,0,1,0,.87.87A.87.87,0,0,0,137.35,167.81Zm-28.87-8.56a.87.87,0,1,0,.87.87A.87.87,0,0,0,108.48,159.25Zm11.55,0a.87.87,0,1,0,.87.87A.87.87,0,0,0,120,159.25Zm11.55,0a.87.87,0,1,0,.87.87A.87.87,0,0,0,131.58,159.25Zm11.92.09h0a.91.91,0,0,0-.37-.08.87.87,0,0,0,0,1.74.86.86,0,0,0,.81-.56C143.8,160.07,143.65,159.71,143.5,159.34ZM91.15,185.17A.87.87,0,1,0,92,186,.87.87,0,0,0,91.15,185.17Zm11.55,0a.87.87,0,1,0,.87.87A.87.87,0,0,0,102.7,185.17Zm11.55,0a.87.87,0,1,0,.87.87A.87.87,0,0,0,114.25,185.17Zm11.55,0a.87.87,0,1,0,.87.87A.87.87,0,0,0,125.8,185.17Zm11.55,0a.87.87,0,1,0,.87.87A.87.87,0,0,0,137.35,185.17Zm-40.42-8.56a.87.87,0,1,0,.87.87A.87.87,0,0,0,96.93,176.61Zm11.55,0a.87.87,0,1,0,.87.87A.87.87,0,0,0,108.48,176.61Zm11.55,0a.87.87,0,1,0,.87.87A.87.87,0,0,0,120,176.61Zm11.55,0a.87.87,0,1,0,.87.87A.87.87,0,0,0,131.58,176.61Zm11.55,0a.87.87,0,1,0,.87.87A.87.87,0,0,0,143.13,176.61Zm-56.9,18.08c-.07.27-.14.51-.21.73a.84.84,0,0,0,.23-.58A.39.39,0,0,0,86.23,194.69Zm10.7-.72a.87.87,0,1,0,.87.87A.87.87,0,0,0,96.93,194Zm11.55,0a.87.87,0,1,0,.87.87A.87.87,0,0,0,108.48,194ZM120,194a.87.87,0,1,0,.87.87A.87.87,0,0,0,120,194Zm11.55,0a.87.87,0,1,0,.87.87A.87.87,0,0,0,131.58,194Z" style="fill: rgb(255, 255, 255); transform-origin: 115.01px 168.815px;" id="el13hhmh9i0v9" class="animable"></path><path d="M123.63,179.46a49.43,49.43,0,0,1,7.2-.12c1.19.09,2.37.22,3.56.39.59.08,1.17.14,1.77.2a7.71,7.71,0,0,0,1.86,0,0,0,0,1,1,0,.08,12.62,12.62,0,0,1-1.74.28,10.85,10.85,0,0,1-1.71,0c-1.21-.07-2.41-.2-3.62-.29-2.44-.18-4.88-.35-7.33-.35C123.52,179.66,123.52,179.47,123.63,179.46Z" style="fill: rgb(38, 50, 56); transform-origin: 130.783px 179.793px;" id="el1o9b4g8kj1k" class="animable"></path><path d="M118.19,182.61a51.75,51.75,0,0,1,5.79-1.35c1-.16,2-.27,3-.35l1.41-.1c.52,0,1,0,1.57,0,.05,0,.07.08,0,.09-.49,0-1,.17-1.46.25l-1.46.23-2.93.46c-2,.28-3.91.59-5.86,1C118.11,182.79,118.09,182.63,118.19,182.61Z" style="fill: rgb(38, 50, 56); transform-origin: 124.066px 181.825px;" id="elgb34v0tyhnb" class="animable"></path><path d="M122.7,138.38c.14,1,4.32,8,8.94,8.25,1.51.07,2.26-8.13,2.26-8.13l.19-.59,2.72-8.3-9.35-7.35-1.36-1s-.59,2.32-1.3,5.21c0,.14-.07.27-.1.41s-.09.32-.12.47c-.11.43-.23.87-.33,1.32s-.16.66-.23,1l-.23,1.06A56.41,56.41,0,0,0,122.7,138.38Z" style="fill: rgb(247, 169, 160); transform-origin: 129.755px 133.945px;" id="elml05cz2iw8" class="animable"></path><path d="M124.8,126.49a17.55,17.55,0,0,0,9.29,11.42l2.72-8.3-9.35-7.35-1.36-1S125.51,123.6,124.8,126.49Z" style="fill: rgb(38, 50, 56); transform-origin: 130.805px 129.585px;" id="eln6rg37q9c2" class="animable"></path><path d="M151.12,117.31c.34,15.32-8.79,17.25-12.1,17.32-3,.06-13.21-.1-15.13-15.3s5.1-20.2,12-20.71S150.79,102,151.12,117.31Z" style="fill: rgb(247, 169, 160); transform-origin: 137.349px 116.606px;" id="el2k69r1cau6" class="animable"></path><path d="M147.78,113a9.38,9.38,0,0,1-1.05-.12,1.64,1.64,0,0,1-1-.32.56.56,0,0,1-.07-.66,1.39,1.39,0,0,1,1.3-.45,2,2,0,0,1,1.31.58A.58.58,0,0,1,147.78,113Z" style="fill: rgb(38, 50, 56); transform-origin: 147.004px 112.215px;" id="elugafyq3jv9" class="animable"></path><path d="M137.22,113.45a9.15,9.15,0,0,0,1-.22,1.71,1.71,0,0,0,1-.43.54.54,0,0,0,0-.66,1.37,1.37,0,0,0-1.33-.32,2,2,0,0,0-1.25.71A.58.58,0,0,0,137.22,113.45Z" style="fill: rgb(38, 50, 56); transform-origin: 137.927px 112.613px;" id="el5ll5uoefznh" class="animable"></path><path d="M139.59,117.36s-.08.06-.08.1c.06,1,0,2.24-1,2.61,0,0,0,.07,0,.06C139.69,119.94,139.81,118.34,139.59,117.36Z" style="fill: rgb(38, 50, 56); transform-origin: 139.095px 118.745px;" id="ely8pmwe48iw" class="animable"></path><path d="M138.63,116.3c-1.68-.09-1.73,3.28-.17,3.36S140,116.37,138.63,116.3Z" style="fill: rgb(38, 50, 56); transform-origin: 138.487px 117.98px;" id="elyjehcbo6hud" class="animable"></path><path d="M138,116.47c-.3.18-.59.51-.95.54s-.71-.32-1-.66c0,0-.06,0-.06,0,0,.64.22,1.31.91,1.41s1.09-.46,1.26-1.11C138.19,116.57,138.09,116.39,138,116.47Z" style="fill: rgb(38, 50, 56); transform-origin: 137.078px 117.061px;" id="el2eb9due91ot" class="animable"></path><path d="M145.63,117.21s.08.05.08.09c-.06,1,0,2.25,1,2.61,0,0,0,.07,0,.06C145.54,119.78,145.41,118.19,145.63,117.21Z" style="fill: rgb(38, 50, 56); transform-origin: 146.126px 118.59px;" id="el6lmtpq11u05" class="animable"></path><path d="M146.58,116.14c1.68-.09,1.74,3.28.18,3.36S145.18,116.21,146.58,116.14Z" style="fill: rgb(38, 50, 56); transform-origin: 146.723px 117.82px;" id="ely4q6tqt8cao" class="animable"></path><path d="M147.29,116.35c.27.17.54.49.86.51s.63-.35.86-.71c0,0,.05,0,.05,0,0,.64-.17,1.32-.79,1.45s-1-.42-1.15-1.06C147.09,116.46,147.18,116.28,147.29,116.35Z" style="fill: rgb(38, 50, 56); transform-origin: 148.087px 116.885px;" id="elf9wg57dd3d" class="animable"></path><path d="M139.48,125.85c.2.29.38.67.74.78a2.79,2.79,0,0,0,1.15,0s.06,0,0,.06A1.39,1.39,0,0,1,140,127a1.11,1.11,0,0,1-.61-1.07C139.37,125.82,139.45,125.81,139.48,125.85Z" style="fill: rgb(38, 50, 56); transform-origin: 140.392px 126.447px;" id="el2r8okodca65" class="animable"></path><path d="M144.19,122s.21,1.56.21,2.3c0,.06-.18.1-.43.11,0,0,0,0,0,0a3.49,3.49,0,0,1-3.39-1.31c-.05-.07,0-.15.11-.1a5.29,5.29,0,0,0,3.19.92c.05-.2-.45-2.66-.33-2.67a6.5,6.5,0,0,1,1.66.39c-.34-3.26-1.21-6.44-1.5-9.69a.1.1,0,0,1,.19,0,53,53,0,0,1,2.06,10.37C146,122.65,144.48,122.1,144.19,122Z" style="fill: rgb(38, 50, 56); transform-origin: 143.261px 118.173px;" id="eleupufhbm0vl" class="animable"></path><path d="M143.86,124.25a4.32,4.32,0,0,1-1.69,1.36,1.9,1.9,0,0,1-1.16.1c-.85-.21-.89-1-.75-1.65a4.76,4.76,0,0,1,.36-1A5.54,5.54,0,0,0,143.86,124.25Z" style="fill: rgb(38, 50, 56); transform-origin: 142.029px 124.409px;" id="el5yslmtnp7ro" class="animable"></path><path d="M142.17,125.61a1.9,1.9,0,0,1-1.16.1c-.85-.21-.89-1-.75-1.65A2,2,0,0,1,142.17,125.61Z" style="fill: rgb(255, 155, 188); transform-origin: 141.184px 124.909px;" id="elu5yri4o1itb" class="animable"></path><path d="M126.35,120.45s-3-5-5.27-3.94-.18,8.13,2.3,9.24a2.59,2.59,0,0,0,3.55-1.16Z" style="fill: rgb(247, 169, 160); transform-origin: 123.518px 121.208px;" id="elh3e08hp5gj6" class="animable"></path><path d="M121.72,118.53s0,0,0,.06c1.74.84,2.57,2.55,3.12,4.31a1.44,1.44,0,0,0-2.11-.53s0,.11,0,.1a1.58,1.58,0,0,1,1.71.67,7.27,7.27,0,0,1,.75,1.47c.07.16.37.1.32-.09a.06.06,0,0,1,0,0C125.71,122.21,124.15,118.91,121.72,118.53Z" style="fill: rgb(38, 50, 56); transform-origin: 123.624px 121.616px;" id="elutaxshxu24d" class="animable"></path><path d="M124.55,118.88c1.66-.06,6.07-4.53,6.38-12.53,0,0-.77,7.17-1.34,8.21s2.47-2.51,2.81-9a26.22,26.22,0,0,0,6.55,3.57c3,.92,4.89.93,5.11.72s-4.23-1.73-5.41-3.15c0,0,8,3.94,11.75,4.31.44,0,1.14-8.84-4.55-12.74s-14.94,0-17.45,2.31c0,0-2.9.35-6.13,4.55S122.76,119,124.55,118.88Z" style="fill: rgb(38, 50, 56); transform-origin: 135.841px 107.746px;" id="el34l0phu23p1" class="animable"></path><path d="M109.28,143.81c-12,15.55-23.67,42.53-22.4,50.28,1.79,11,31.65,30.26,40.39,34.49,3.28,1.59,13.2-27.05,9.72-28.79-5.54-2.77-25.17-15-25.45-17.18-.18-1.34,4.94-19.84,7.59-32C122.69,134.36,113.36,138.51,109.28,143.81Z" style="fill: rgb(247, 169, 160); transform-origin: 112.252px 183.871px;" id="elqcl7o77v87" class="animable"></path><path d="M171.43,213.48a6.8,6.8,0,0,1-2.93,3.6,6.73,6.73,0,0,1,1.19,4.41c-.36,2.74-4.81,3.37-4.81,3.37a8.26,8.26,0,0,1,.51,4.85c-.6,2.58-5,3.86-5,3.86a7.2,7.2,0,0,1-2.23,4.55c-3.5,3.06-10.32,1-14.66-.28S128,228.9,125.74,227.65l7.89-27.92s21.09.16,26,2.38C163.74,204,172.62,209.94,171.43,213.48Z" style="fill: rgb(247, 169, 160); transform-origin: 148.639px 219.722px;" id="el72tb6ymjft5" class="animable"></path><path d="M168.47,217c-3.91-3-8.54-5.14-13-7.11a.08.08,0,0,0-.07.15c4.49,1.91,8.57,5.07,13,7.16A.12.12,0,0,0,168.47,217Z" style="fill: rgb(38, 50, 56); transform-origin: 161.927px 213.541px;" id="elwubril0qc7g" class="animable"></path><path d="M164.89,224.47a12.92,12.92,0,0,0-3.06-1.42c-1.12-.43-2.24-.83-3.38-1.22-2.26-.78-4.54-1.51-6.84-2.17-.1,0-.17.12-.07.15,2.26.79,4.5,1.6,6.72,2.48,1.11.43,2.22.88,3.32,1.34a15.89,15.89,0,0,0,3.18,1.14A.17.17,0,0,0,164.89,224.47Z" style="fill: rgb(38, 50, 56); transform-origin: 158.222px 222.216px;" id="eltddvthqzbxf" class="animable"></path><path d="M160.29,233.54a8.75,8.75,0,0,0-2.83-1.13l-3.11-1c-2.07-.69-4.14-1.38-6.18-2.15-.1,0-.17.12-.07.16,2.08.78,4.14,1.6,6.22,2.37l3.07,1.11a8.31,8.31,0,0,0,2.87.76A.06.06,0,0,0,160.29,233.54Z" style="fill: rgb(38, 50, 56); transform-origin: 154.194px 231.461px;" id="elnojhwbe2h2" class="animable"></path><path d="M116,168.77l-21.35-6.31s9.16-15.54,17-21.68,9.6-1.63,8.81,5.64S116,168.77,116,168.77Z" style="fill: #4FE27B; transform-origin: 107.641px 153.334px;" id="el6sledj9aqwc" class="animable"></path><path d="M103.57,151.33a.87.87,0,0,1-1.68.3l.87-1.16A.86.86,0,0,1,103.57,151.33Zm10.68-.88a.87.87,0,1,0,.87.87A.87.87,0,0,0,114.25,150.45Zm-5.7-6.83a.86.86,0,0,0,.79-.79C109.08,143.09,108.81,143.35,108.55,143.62Zm12-1.52a.86.86,0,0,0-.56-.21.87.87,0,1,0,0,1.74.81.81,0,0,0,.62-.27C120.64,142.92,120.63,142.5,120.59,142.1Zm-6.34,25.71a.84.84,0,0,0-.61.26l1.46.43A.87.87,0,0,0,114.25,167.81Zm-17.32-8.56a.93.93,0,0,0-.29.05h0c-.21.31-.39.61-.57.88a.86.86,0,0,0,.86.8.87.87,0,0,0,0-1.74Zm11.55,0a.87.87,0,1,0,.87.87A.87.87,0,0,0,108.48,159.25Z" style="fill: rgb(255, 255, 255); transform-origin: 108.329px 155.195px;" id="ellvb8ezc9hbi" class="animable"></path><path d="M115.46,164.73c.14,0,.15.14,0,.11a150.68,150.68,0,0,1-17.9-5.37s0-.08,0-.08C100.64,159.9,113.91,164.3,115.46,164.73Z" style="fill: rgb(38, 50, 56); transform-origin: 106.564px 162.117px;" id="elrygjutg4vof" class="animable"></path><path d="M119.73,152.07c-1.07,5.63-2.37,11.52-3.58,17,0,.1-.89-.33-1.25-.47-.14-.06,0-.19.09-.15a4.3,4.3,0,0,0,.81.16c1.23-5.53,2.47-11.06,3.87-16.55C119.68,152,119.74,152,119.73,152.07Z" style="fill: rgb(38, 50, 56); transform-origin: 117.286px 160.551px;" id="el03b7ba8i30mi" class="animable"></path></g><g id="freepik--Wallet--inject-7" class="animable" style="transform-origin: 314.742px 286.5px;"><g id="el1wi3w449xi6" class=""><rect x="181.7" y="144.15" width="214.64" height="103.38" style="fill: #4FE27B; transform-origin: 289.02px 195.84px; transform: rotate(-6.66deg);" class="animable" id="elmr1500mwv3b"></rect></g><g id="elxckkvulw92d" class=""><rect x="181.7" y="144.15" width="214.64" height="103.38" style="opacity: 0.1; transform-origin: 289.02px 195.84px; transform: rotate(-6.66deg);" class="animable" id="elr691axuaozr"></rect></g><g id="elxjx0gh74nqa" class=""><path d="M389.61,132l-6.45.76L182.89,156.21l-6.47.75.76,6.46,10.49,89.76.76,6.47,6.45-.76,200.28-23.41,6.45-.75h0L389.63,132Zm4.8,97L194.13,252.42l-10.48-89.76,200.26-23.39Z" style="opacity: 0.1; transform-origin: 289.015px 195.825px;" class="animable" id="el4ebuqfgqfoc"></path></g><g id="elg0xs7soxnmi" class=""><ellipse cx="289.17" cy="197.1" rx="30.06" ry="35.06" style="opacity: 0.1; transform-origin: 289.17px 197.1px; transform: rotate(-6.66deg);" class="animable" id="elca7rpfpjyfp"></ellipse></g><g id="el5ap2w4vujpx" class=""><path d="M239.21,200.65a8.05,8.05,0,1,1-8.93-7.06A8.05,8.05,0,0,1,239.21,200.65Z" style="opacity: 0.1; transform-origin: 231.215px 201.586px;" class="animable" id="elacv9mtiham9"></path></g><g id="el75z6kmj0gjk" class=""><path d="M354.6,187.17a8.05,8.05,0,1,1-8.94-7.07A8.06,8.06,0,0,1,354.6,187.17Z" style="opacity: 0.1; transform-origin: 346.603px 188.095px;" class="animable" id="el0h6uy8jwn3rg"></path></g><g id="el77jb775b01h" class=""><path d="M208.42,250.76l-14.29,1.66-1.67-14.27A14.38,14.38,0,0,1,208.42,250.76Z" style="opacity: 0.1; transform-origin: 200.44px 245.236px;" class="animable" id="elo6q3xtznm6"></path></g><g id="elz5e4njos2zs" class=""><path d="M392.73,214.74,394.4,229l-14.27,1.67A14.38,14.38,0,0,1,392.73,214.74Z" style="opacity: 0.1; transform-origin: 387.218px 222.705px;" class="animable" id="el84w3fw0fraq"></path></g><g id="eld3zgfk19avp" class=""><path d="M369.63,140.93l14.28-1.67,1.67,14.27A14.37,14.37,0,0,1,369.63,140.93Z" style="opacity: 0.1; transform-origin: 377.605px 146.444px;" class="animable" id="elhnv9urmuxbt"></path></g><g id="elmpq2aloon0k" class=""><path d="M185.31,176.94l-1.67-14.29L197.91,161A14.38,14.38,0,0,1,185.31,176.94Z" style="opacity: 0.1; transform-origin: 190.823px 168.97px;" class="animable" id="eli1h13tvvmw"></path></g><path d="M286.44,170.77a1.46,1.46,0,0,1,1.61,1.27l.28,2.4a19.68,19.68,0,0,1,11.18,2.95,1.69,1.69,0,0,1,1,1.29,1.54,1.54,0,0,1-1.38,1.68,1.48,1.48,0,0,1-1.13-.29,17.16,17.16,0,0,0-9.47-2.85l2,16.81c9.35.85,13.59,3.83,14.28,9.71.74,6.37-4.07,11.5-11.55,12.61l.54,4.69a1.45,1.45,0,0,1-2.88.33l-.55-4.74a22.66,22.66,0,0,1-14.19-4.25,1.55,1.55,0,0,1-.81-1.18,1.58,1.58,0,0,1,1.33-1.68,1.55,1.55,0,0,1,1.13.3,19.47,19.47,0,0,0,12.34,4.09l-2-17.11c-9.24-.93-13.34-3.8-14.05-9.8s4-11.31,11.34-12.34l-.26-2.29A1.46,1.46,0,0,1,286.44,170.77Zm1.34,23-1.91-16.4c-5.81.81-9.25,4.74-8.74,9.06C277.61,190.48,279.82,192.78,287.78,193.74Zm3.08,3.35,1.93,16.57c6-.82,9.49-4.76,8.95-9.32C301.26,200.2,298.86,197.92,290.86,197.09Z" style="fill: #4FE27B; transform-origin: 289.467px 196.688px;" id="elz0xqco0b01" class="animable"></path><rect x="379.51" y="301.94" width="79.22" height="40.2" style="fill: #4FE27B; transform-origin: 419.12px 322.04px;" id="el5usl0fked4" class="animable"></rect><g id="elkc5dgbregm" class=""><circle cx="440.91" cy="322.04" r="8.99" style="fill: rgb(235, 235, 235); transform-origin: 440.91px 322.04px; transform: rotate(-76.77deg);" class="animable" id="el83jybr4r3lu"></circle></g><circle cx="440.91" cy="322.04" r="4.92" style="fill: rgb(219, 219, 219); transform-origin: 440.91px 322.04px;" id="elk3cq6ubcf8s" class="animable"></circle><rect x="171.06" y="230.93" width="239.78" height="179.03" style="fill: #4FE27B; transform-origin: 290.95px 320.445px;" id="elhxv3cqjqk2k" class="animable"></rect><g id="eltwaao0zwass" class=""><rect x="171.06" y="230.93" width="239.78" height="179.03" style="opacity: 0.1; transform-origin: 290.95px 320.445px;" class="animable" id="elgoyjsvasys8"></rect></g><path d="M367.73,140.55l23.92,108.1A11.21,11.21,0,0,1,383.14,262L211.68,300a11.19,11.19,0,0,1-13.35-8.53L174.4,183.33a10.43,10.43,0,0,1,7.93-12.43l173-38.28A10.44,10.44,0,0,1,367.73,140.55Z" style="fill: rgb(69, 90, 100); transform-origin: 283.033px 216.324px;" id="elx9xd3l1kab" class="animable"></path><g id="elm28vp9fi8i" class=""><rect x="194.84" y="183.8" width="37.17" height="25.69" rx="4.2" style="fill: #4FE27B; transform-origin: 213.425px 196.645px; transform: rotate(-12.48deg);" class="animable" id="elpa06dldcd8f"></rect></g><path d="M350.27,167.64l-16.41,3.63a7,7,0,0,1-8.4-5.36h0a7,7,0,0,1,5.35-8.4l16.42-3.63a7,7,0,0,1,8.4,5.36h0A7.05,7.05,0,0,1,350.27,167.64Z" style="fill: rgb(255, 255, 255); transform-origin: 340.54px 162.575px;" id="elollfh1y1cpe" class="animable"></path><path d="M201.78,236.36l-1.29,1.2a.37.37,0,0,1-.17.1.39.39,0,0,1-.36-.11.36.36,0,0,1,0-.53l1.76-1.68a.39.39,0,0,1,.52,0,.43.43,0,0,1,.11.26l2.14,9.67a.37.37,0,0,1-.28.44.39.39,0,0,1-.45-.28Z" style="fill: rgb(248, 248, 248); transform-origin: 202.171px 240.479px;" id="el3ia30qyltiy" class="animable"></path><path d="M207,244.44l3.93-5.52a2.79,2.79,0,0,0,.46-2.22,2.78,2.78,0,0,0-3.3-2.09,2.81,2.81,0,0,0-1.69,1.1l-.4.58a.37.37,0,0,1-.62-.42l.41-.6a3.61,3.61,0,0,1,2.13-1.4,3.54,3.54,0,0,1,4.19,2.67,3.54,3.54,0,0,1-.56,2.81l-3.37,4.73,5-1.1a.38.38,0,0,1,.44.3.37.37,0,0,1-.28.44L207.5,245h-.06a.35.35,0,0,1-.3-.05A.4.4,0,0,1,207,244.44Z" style="fill: rgb(248, 248, 248); transform-origin: 209.472px 239.403px;" id="elm68uupis7yf" class="animable"></path><path d="M220.24,231.85l-2.1,3.4a3.59,3.59,0,0,1,3.61,2.86,3.59,3.59,0,0,1-.49,2.76,3.68,3.68,0,0,1-2.3,1.61,3.56,3.56,0,0,1-2.74-.5.37.37,0,0,1-.12-.52.38.38,0,0,1,.53-.12,2.92,2.92,0,0,0,4-.88,2.86,2.86,0,0,0,.39-2.19,2.89,2.89,0,0,0-3.44-2.18.4.4,0,0,1-.33-.09h0a.38.38,0,0,1-.12-.54l2-3.27-4,.89a.38.38,0,0,1-.46-.29.38.38,0,0,1,.29-.46l4.92-1.09a.39.39,0,0,1,.46.3.32.32,0,0,1,0,.17A.58.58,0,0,1,220.24,231.85Z" style="fill: rgb(248, 248, 248); transform-origin: 218.25px 236.899px;" id="el50njspvwwgj" class="animable"></path><path d="M230.78,237.59l-5.7,1.26h0a.31.31,0,0,1-.25,0,.35.35,0,0,1-.15-.5l4.41-8.93v0a.36.36,0,0,1,.5-.16.49.49,0,0,1,.16.16s0,0,0,.05v.05l1.6,7.22.7-.16a.38.38,0,0,1,.46.28.37.37,0,0,1-.3.44l-.7.16.4,1.81a.38.38,0,0,1-.74.16Zm-.16-.72-1.36-6.16L225.64,238Z" style="fill: rgb(248, 248, 248); transform-origin: 228.573px 234.456px;" id="elqmffkc91cq" class="animable"></path><path d="M244.22,235.8a.36.36,0,0,1-.11-.52.38.38,0,0,1,.54-.12,2.91,2.91,0,0,0,2.16.37,2.9,2.9,0,0,0,2.19-3.44,2.83,2.83,0,0,0-3.42-2.19,2.86,2.86,0,0,0-1.82,1.27.37.37,0,0,1-.52.12.29.29,0,0,1-.12-.1v0s0,0,0,0a.34.34,0,0,1,0-.12.21.21,0,0,0,0-.08l-.43-4.35a.35.35,0,0,1,.09-.3.34.34,0,0,1,.22-.15l4.91-1.08a.38.38,0,1,1,.16.75l-4.58,1,.31,3.22a3.65,3.65,0,0,1,5.55,4.65,3.78,3.78,0,0,1-2.3,1.6A3.67,3.67,0,0,1,244.22,235.8Z" style="fill: rgb(248, 248, 248); transform-origin: 246.306px 230.759px;" id="elpawfboqoe4" class="animable"></path><path d="M252.66,226.39a4.37,4.37,0,0,1,3.17-3.1.38.38,0,0,1,.46.27.41.41,0,0,1-.28.47,3.63,3.63,0,0,0-2.64,2.59,7,7,0,0,0-.29,2.27,3.54,3.54,0,1,1-.34,2.6,5,5,0,0,1-.18-.69A8.79,8.79,0,0,1,252.66,226.39Zm.8,4.87a.68.68,0,0,0,.08.19.22.22,0,0,1,0,.11,2.84,2.84,0,1,0-.1-.36Z" style="fill: rgb(248, 248, 248); transform-origin: 256.019px 228.717px;" id="el5klc1l41s2f" class="animable"></path><path d="M264.16,231.94,266,221.85,260.93,223a.37.37,0,0,1-.16-.72l5.57-1.23a.41.41,0,0,1,.22,0,.43.43,0,0,1,.25.18c0,.05.05.07.06.12a.38.38,0,0,1,0,.21l-1.93,10.58a.39.39,0,0,1-.28.3.29.29,0,0,1-.16,0A.41.41,0,0,1,264.16,231.94Z" style="fill: rgb(248, 248, 248); transform-origin: 263.697px 226.743px;" id="elz850reuv51t" class="animable"></path><path d="M272.35,219.62a2.24,2.24,0,0,1,2.17,3.67,3.49,3.49,0,1,1-2.61.58,2.29,2.29,0,0,1-1.26-1.58A2.23,2.23,0,0,1,272.35,219.62Zm2.17,9.81a2.76,2.76,0,1,0-3.29-2.1A2.74,2.74,0,0,0,274.52,229.43Zm-1.36-6.14a1.52,1.52,0,0,0,1.14-1.81,1.5,1.5,0,0,0-2.93.65A1.52,1.52,0,0,0,273.16,223.29Z" style="fill: rgb(248, 248, 248); transform-origin: 273.914px 224.891px;" id="ela5jtni2pbec" class="animable"></path><path d="M291.06,215.48a3.55,3.55,0,0,1,4.14,2.31s0,0,0,.06c.08.29.16.58.23.9a8.94,8.94,0,0,1-.08,4.42,4.43,4.43,0,0,1-3.18,3.1h0a.35.35,0,0,1-.45-.26.38.38,0,0,1,.27-.47,3.66,3.66,0,0,0,2.65-2.59,6.84,6.84,0,0,0,.28-2.27,3.56,3.56,0,1,1-3.89-5.2Zm3.52,2.85a2.81,2.81,0,1,0-2.15,3.35A2.81,2.81,0,0,0,294.58,218.33Z" style="fill: rgb(248, 248, 248); transform-origin: 291.958px 220.84px;" id="el2yghccp5gq5" class="animable"></path><path d="M298.38,219.38a6.87,6.87,0,0,1,.19-3.9,3.06,3.06,0,0,1,5.27-1.17,7.08,7.08,0,0,1,1.84,3.46,6.94,6.94,0,0,1-.22,3.9,3,3,0,0,1-5.26,1.16A6.74,6.74,0,0,1,298.38,219.38Zm.74-.16a6.17,6.17,0,0,0,1.61,3.07,2.29,2.29,0,0,0,4-.89,6.49,6.49,0,0,0-1.45-6.53,2.29,2.29,0,0,0-4,.89A6.1,6.1,0,0,0,299.12,219.22Z" style="fill: rgb(248, 248, 248); transform-origin: 302.023px 218.601px;" id="elx9s0kcjeocb" class="animable"></path><path d="M309.61,212.5l-1.29,1.2a.37.37,0,0,1-.17.1.39.39,0,0,1-.36-.11.37.37,0,0,1,0-.53l1.76-1.68a.37.37,0,0,1,.52,0,.43.43,0,0,1,.11.26l2.14,9.67a.37.37,0,0,1-.28.44.38.38,0,0,1-.44-.28Z" style="fill: rgb(248, 248, 248); transform-origin: 310.003px 216.615px;" id="elpcmxvzn48qe" class="animable"></path><path d="M314.87,220.58l3.93-5.53a2.76,2.76,0,0,0,.46-2.21,2.73,2.73,0,0,0-1.11-1.65,2.71,2.71,0,0,0-2.19-.44,2.77,2.77,0,0,0-1.68,1.09l-.41.58a.35.35,0,0,1-.52.1.35.35,0,0,1-.09-.51l.4-.6a3.61,3.61,0,0,1,2.13-1.4,3.54,3.54,0,0,1,4.19,2.67,3.54,3.54,0,0,1-.56,2.81l-3.37,4.73,5-1.1a.38.38,0,0,1,.44.3.37.37,0,0,1-.28.44l-5.86,1.3h-.06a.35.35,0,0,1-.3,0A.4.4,0,0,1,314.87,220.58Z" style="fill: rgb(248, 248, 248); transform-origin: 317.343px 215.563px;" id="elapdu567kjad" class="animable"></path><path d="M337.09,206l-2.1,3.4a3.67,3.67,0,0,1,2,.56,3.67,3.67,0,0,1-1.19,6.67,3.56,3.56,0,0,1-2.74-.5.37.37,0,0,1-.12-.52.38.38,0,0,1,.53-.12,2.89,2.89,0,1,0,.93-5.25.39.39,0,0,1-.33-.09h0a.4.4,0,0,1-.12-.54l2-3.28-4,.9a.39.39,0,0,1-.46-.3.38.38,0,0,1,.29-.46l4.92-1.08a.38.38,0,0,1,.46.29.32.32,0,0,1,0,.17A.58.58,0,0,1,337.09,206Z" style="fill: rgb(248, 248, 248); transform-origin: 335.077px 211.048px;" id="elc8jzpj7919b" class="animable"></path><path d="M347.63,211.74l-5.7,1.26h-.05a.34.34,0,0,1-.24,0,.36.36,0,0,1-.16-.5l4.42-8.93v0a.36.36,0,0,1,.5-.15.46.46,0,0,1,.16.15.33.33,0,0,0,0,.06v0l1.6,7.22.7-.16a.37.37,0,1,1,.16.73l-.7.15.39,1.81a.37.37,0,0,1-.29.44.36.36,0,0,1-.44-.28Zm-.16-.73-1.37-6.16-3.61,7.27Z" style="fill: rgb(248, 248, 248); transform-origin: 345.375px 208.602px;" id="el3ge8fo05qof" class="animable"></path><path d="M352.05,211.94a.38.38,0,0,1-.11-.53.4.4,0,0,1,.54-.12,2.87,2.87,0,0,0,2.16.38,2.9,2.9,0,0,0,2.19-3.44,2.83,2.83,0,0,0-3.42-2.19,2.84,2.84,0,0,0-1.81,1.27.38.38,0,0,1-.53.12.4.4,0,0,1-.12-.1v0s0,0,0,0a.34.34,0,0,1,0-.12.21.21,0,0,0,0-.08l-.43-4.35a.37.37,0,0,1,.09-.31.37.37,0,0,1,.22-.14l4.91-1.08a.38.38,0,1,1,.16.75l-4.58,1,.31,3.21a3.65,3.65,0,0,1,1.69-.87,3.54,3.54,0,0,1,2.74.48,3.5,3.5,0,0,1,1.59,2.3,3.61,3.61,0,0,1-.47,2.75,3.78,3.78,0,0,1-2.3,1.6A3.67,3.67,0,0,1,352.05,211.94Z" style="fill: rgb(248, 248, 248); transform-origin: 354.129px 206.899px;" id="elp2e0g26w77g" class="animable"></path><path d="M360.49,202.53a4.38,4.38,0,0,1,3.18-3.1.37.37,0,0,1,.45.26.41.41,0,0,1-.28.48,3.63,3.63,0,0,0-2.64,2.58,7.1,7.1,0,0,0-.29,2.28,3.52,3.52,0,0,1,2.34-1.77,3.56,3.56,0,1,1-2.68,4.37,5,5,0,0,1-.18-.69A8.91,8.91,0,0,1,360.49,202.53Zm.81,4.87a.54.54,0,0,0,.07.19.22.22,0,0,1,0,.11,2.84,2.84,0,1,0-.1-.36Z" style="fill: rgb(248, 248, 248); transform-origin: 363.868px 204.857px;" id="el6wu3g9zz365" class="animable"></path><g id="el2swz0wacobk" class=""><rect x="208.59" y="253.37" width="94.03" height="4.62" style="fill: rgb(166, 166, 166); transform-origin: 255.605px 255.68px; transform: rotate(-12.48deg);" class="animable" id="elknr2tyg95uo"></rect></g><g id="el0pa7sd3hnzs" class=""><rect x="211.13" y="266.35" width="66.57" height="4.62" style="fill: rgb(166, 166, 166); transform-origin: 244.415px 268.66px; transform: rotate(-12.48deg);" class="animable" id="elr31c0kat3o"></rect></g><g id="elimldjhazsem" class=""><rect x="271.78" y="165.44" width="46.89" height="4.62" style="fill: rgb(166, 166, 166); transform-origin: 295.225px 167.75px; transform: rotate(-12.48deg);" class="animable" id="elwxcv7q4q86"></rect></g><rect x="186.29" y="252.97" width="209.32" height="61.27" style="fill: #4FE27B; transform-origin: 290.95px 283.605px;" id="elunn3p0z70b" class="animable"></rect><g id="elf0gmne0yzvv" class=""><rect x="186.29" y="252.97" width="209.32" height="61.27" style="opacity: 0.3; transform-origin: 290.95px 283.605px;" class="animable" id="el6i437pcnvrm"></rect></g><path d="M389.81,251.44l.29,110.72a11.22,11.22,0,0,1-11.17,11.24l-175.61.45a11.19,11.19,0,0,1-11.22-11.18L191.81,252a10.42,10.42,0,0,1,10.4-10.45L379.35,241A10.43,10.43,0,0,1,389.81,251.44Z" style="fill: rgb(219, 219, 219); transform-origin: 290.955px 307.425px;" id="eltjggd1xh949" class="animable"></path><path d="M361.52,346.63a10.31,10.31,0,1,1-10.34-10.28A10.31,10.31,0,0,1,361.52,346.63Z" style="fill: rgb(166, 166, 166); transform-origin: 351.21px 346.66px;" id="el0xj35sblsc5p" class="animable"></path><path d="M374.21,346.59a10.31,10.31,0,1,1-10.34-10.28A10.32,10.32,0,0,1,374.21,346.59Z" style="fill: #4FE27B; transform-origin: 363.9px 346.62px;" id="elx1b6p4ls7q" class="animable"></path><g id="el4oyty0kdfcv" class=""><rect x="208.5" y="260.45" width="37.17" height="25.69" rx="4.2" style="fill: #4FE27B; transform-origin: 227.085px 273.295px; transform: rotate(-0.15deg);" class="animable" id="elrxpwho6il5k"></rect></g><path d="M367,274.17l-16.82.05a7,7,0,0,1-7.06-7h0a7,7,0,0,1,7-7.06l16.82-.05a7,7,0,0,1,7.06,7h0A7,7,0,0,1,367,274.17Z" style="fill: rgb(255, 255, 255); transform-origin: 358.56px 267.165px;" id="el292uoqs23lp" class="animable"></path><path d="M207.23,309.6l-1.52.9a.39.39,0,0,1-.18.06.37.37,0,0,1-.33-.18.36.36,0,0,1,.14-.51l2.08-1.27a.38.38,0,0,1,.5.14.39.39,0,0,1,.05.28l0,9.9a.37.37,0,0,1-.37.37.38.38,0,0,1-.37-.37Z" style="fill: rgb(248, 248, 248); transform-origin: 206.562px 313.924px;" id="eliyln4curqw" class="animable"></path><path d="M210.64,318.62l5-4.56a2.77,2.77,0,0,0-3.74-4.1l-.52.48a.36.36,0,0,1-.53,0,.35.35,0,0,1,0-.52l.52-.49a3.58,3.58,0,0,1,2.38-.92,3.44,3.44,0,0,1,2.59,1.15,3.4,3.4,0,0,1,.93,2.36,3.54,3.54,0,0,1-1.14,2.62l-4.31,3.9H217a.38.38,0,0,1,.37.39.38.38,0,0,1-.37.37h-6.06a.34.34,0,0,1-.28-.11A.4.4,0,0,1,210.64,318.62Z" style="fill: rgb(248, 248, 248); transform-origin: 213.95px 313.906px;" id="el3q3740apdk7" class="animable"></path><path d="M226.23,309.14,223.45,312a3.61,3.61,0,0,1,2.92,3.57,3.62,3.62,0,0,1-1.07,2.59,3.67,3.67,0,0,1-2.59,1.08,3.6,3.6,0,0,1-2.57-1.07.36.36,0,0,1,0-.54.38.38,0,0,1,.54,0,2.9,2.9,0,0,0,2,.83,3,3,0,0,0,2-.84,2.87,2.87,0,0,0,.84-2.05,2.89,2.89,0,0,0-2.89-2.87.43.43,0,0,1-.31-.16h0a.38.38,0,0,1,0-.55l2.67-2.77h-4.13a.39.39,0,0,1,0-.77h5a.38.38,0,0,1,.38.38.29.29,0,0,1,0,.17A.41.41,0,0,1,226.23,309.14Z" style="fill: rgb(248, 248, 248); transform-origin: 223.194px 313.845px;" id="elrgfcoonwu2g" class="animable"></path><path d="M235.3,317l-5.84,0h0a.32.32,0,0,1-.23-.08.35.35,0,0,1-.05-.52l6.22-7.78v0a.36.36,0,0,1,.52-.05.46.46,0,0,1,.13.19s0,0,0,.06v.05l0,7.39h.73a.37.37,0,1,1,0,.74h-.73v1.85a.38.38,0,0,1-.75,0Zm0-.74,0-6.31-5.08,6.32Z" style="fill: rgb(248, 248, 248); transform-origin: 233.12px 313.825px;" id="eltkx188rku6h" class="animable"></path><path d="M248.81,318.12a.38.38,0,0,1,0-.54.4.4,0,0,1,.56,0,2.9,2.9,0,0,0,2,.83,2.85,2.85,0,0,0,2-.86,2.79,2.79,0,0,0,.84-2,2.9,2.9,0,0,0-.83-2,2.91,2.91,0,0,0-4.08,0,.38.38,0,0,1-.54,0,.28.28,0,0,1-.1-.12v0a.06.06,0,0,1,0,0,.27.27,0,0,1,0-.13.31.31,0,0,0,0-.07l.51-4.35a.33.33,0,0,1,.15-.28.38.38,0,0,1,.25-.09h5a.39.39,0,1,1,0,.77H250l-.38,3.2a3.63,3.63,0,0,1,1.83-.49,3.6,3.6,0,0,1,3.64,3.64,3.59,3.59,0,0,1-1,2.59,3.81,3.81,0,0,1-2.59,1.07A3.65,3.65,0,0,1,248.81,318.12Z" style="fill: rgb(248, 248, 248); transform-origin: 251.872px 313.898px;" id="elak5rk7s5nu" class="animable"></path><path d="M259.06,310.73a4.39,4.39,0,0,1,3.77-2.35.38.38,0,0,1,.39.35.41.41,0,0,1-.37.41,3.63,3.63,0,0,0-3.14,2,6.93,6.93,0,0,0-.76,2.16,3.54,3.54,0,1,1-.89,2.46,5.39,5.39,0,0,1,0-.7A8.94,8.94,0,0,1,259.06,310.73Zm-.25,4.93a1.06,1.06,0,0,0,0,.2.34.34,0,0,1,0,.11,2.84,2.84,0,1,0,0-.37Z" style="fill: rgb(248, 248, 248); transform-origin: 261.593px 313.784px;" id="elyoc77wv5pej" class="animable"></path><path d="M269.12,318.61l4-9.47h-5.2a.38.38,0,0,1-.37-.37.37.37,0,0,1,.36-.37h5.7a.36.36,0,0,1,.23,0,.43.43,0,0,1,.21.23.61.61,0,0,1,0,.13.36.36,0,0,1-.06.2l-4.15,9.93a.38.38,0,0,1-.34.23.27.27,0,0,1-.15,0A.41.41,0,0,1,269.12,318.61Z" style="fill: rgb(248, 248, 248); transform-origin: 270.802px 313.756px;" id="el5tajugbsbng" class="animable"></path><path d="M279.74,308.32a2.25,2.25,0,0,1,2.26,2.23,2.29,2.29,0,0,1-.92,1.82,3.49,3.49,0,1,1-2.66,0,2.28,2.28,0,0,1-.9-1.82A2.22,2.22,0,0,1,279.74,308.32Zm0,10a2.76,2.76,0,1,0-2.76-2.75A2.74,2.74,0,0,0,279.77,318.36Zm0-6.28a1.54,1.54,0,0,0,1.51-1.53,1.5,1.5,0,1,0-1.51,1.53Z" style="fill: rgb(248, 248, 248); transform-origin: 279.75px 313.703px;" id="elxy1h4mho8z" class="animable"></path><path d="M298.91,308.27a3.55,3.55,0,0,1,3.55,3.13.19.19,0,0,0,0,.08q0,.43,0,.93a8.88,8.88,0,0,1-1,4.3,4.46,4.46,0,0,1-3.77,2.35h0a.37.37,0,0,1-.39-.36.4.4,0,0,1,.37-.4,3.65,3.65,0,0,0,3.14-2,6.61,6.61,0,0,0,.76-2.16,3.51,3.51,0,0,1-2.67,1.19,3.55,3.55,0,1,1,0-7.1Zm2.83,3.54a2.82,2.82,0,1,0-2.82,2.81A2.8,2.8,0,0,0,301.74,311.81Z" style="fill: rgb(248, 248, 248); transform-origin: 298.906px 313.645px;" id="ele09kuh9wtb" class="animable"></path><path d="M305.23,313.65a6.9,6.9,0,0,1,1-3.78,3.06,3.06,0,0,1,5.39,0,7.28,7.28,0,0,1,0,7.53,3,3,0,0,1-5.39,0A6.78,6.78,0,0,1,305.23,313.65Zm.76,0a6.13,6.13,0,0,0,.91,3.34,2.29,2.29,0,0,0,4.13,0,6.46,6.46,0,0,0,0-6.68,2.29,2.29,0,0,0-4.12,0A6,6,0,0,0,306,313.64Z" style="fill: rgb(248, 248, 248); transform-origin: 308.948px 313.671px;" id="ely02lc6he0r" class="animable"></path><path d="M317.67,309.32l-1.52.89a.4.4,0,0,1-.18.07.38.38,0,0,1-.33-.19.35.35,0,0,1,.14-.51l2.07-1.27a.39.39,0,0,1,.51.14.4.4,0,0,1,.05.28l0,9.9a.37.37,0,0,1-.74,0Z" style="fill: rgb(248, 248, 248); transform-origin: 316.999px 313.632px;" id="el4nqyccvfdx8" class="animable"></path><path d="M321.08,318.33l5-4.55a2.77,2.77,0,0,0-1.86-4.82,2.84,2.84,0,0,0-1.88.71l-.52.48a.36.36,0,0,1-.53,0,.35.35,0,0,1,0-.52l.52-.5a3.6,3.6,0,0,1,2.38-.91,3.53,3.53,0,0,1,3.52,3.5,3.54,3.54,0,0,1-1.14,2.62l-4.31,3.91,5.1,0a.38.38,0,0,1,.37.39.38.38,0,0,1-.37.37h-6.06a.34.34,0,0,1-.28-.11A.41.41,0,0,1,321.08,318.33Z" style="fill: rgb(248, 248, 248); transform-origin: 324.331px 313.616px;" id="el7kajeakilfw" class="animable"></path><path d="M345.9,308.83l-2.78,2.87a3.59,3.59,0,0,1,2.92,3.57,3.59,3.59,0,0,1-1.07,2.59,3.63,3.63,0,0,1-5.16,0,.38.38,0,0,1,0-.54.37.37,0,0,1,.54,0,2.87,2.87,0,0,0,2,.82,2.94,2.94,0,0,0,2-.83,2.9,2.9,0,0,0-2-4.93.36.36,0,0,1-.31-.15h0a.39.39,0,0,1,0-.55l2.67-2.77h-4.12a.38.38,0,0,1-.39-.38.38.38,0,0,1,.38-.39h5a.38.38,0,0,1,.39.38.29.29,0,0,1,0,.17A.22.22,0,0,1,345.9,308.83Z" style="fill: rgb(248, 248, 248); transform-origin: 342.869px 313.538px;" id="elaxer4m1scmr" class="animable"></path><path d="M355,316.69h-5.88a.28.28,0,0,1-.23-.07.35.35,0,0,1-.05-.52l6.22-7.78,0,0a.35.35,0,0,1,.52-.05.55.55,0,0,1,.12.19s0,0,0,.06v.05l0,7.39h.72a.37.37,0,1,1,0,.74h-.72v1.85a.37.37,0,0,1-.38.37.38.38,0,0,1-.37-.37Zm0-.74v-6.31L349.87,316Z" style="fill: rgb(248, 248, 248); transform-origin: 352.77px 313.549px;" id="elus0icc9x0vd" class="animable"></path><path d="M359.25,317.83a.38.38,0,0,1,0-.54.4.4,0,0,1,.56,0,2.87,2.87,0,0,0,4.06,0,2.81,2.81,0,0,0,.84-2,2.83,2.83,0,0,0-2.87-2.87,2.83,2.83,0,0,0-2,.85.36.36,0,0,1-.54,0,.23.23,0,0,1-.1-.12h0a.11.11,0,0,1,0-.05.23.23,0,0,1,0-.12s0-.05,0-.08l.51-4.35a.32.32,0,0,1,.15-.27.33.33,0,0,1,.25-.1h5a.39.39,0,1,1,0,.77h-4.69l-.38,3.21a3.63,3.63,0,0,1,5.47,3.14,3.59,3.59,0,0,1-1.05,2.59,3.72,3.72,0,0,1-2.59,1.07A3.65,3.65,0,0,1,359.25,317.83Z" style="fill: rgb(248, 248, 248); transform-origin: 362.35px 313.568px;" id="el22o0v35sc95i" class="animable"></path><path d="M369.5,310.45a4.38,4.38,0,0,1,3.77-2.36.38.38,0,0,1,.38.36.39.39,0,0,1-.36.4,3.65,3.65,0,0,0-3.14,2,7.2,7.2,0,0,0-.77,2.16,3.55,3.55,0,1,1-.88,2.47,5.47,5.47,0,0,1,0-.71A8.93,8.93,0,0,1,369.5,310.45Zm-.25,4.92a1.06,1.06,0,0,0,0,.2.34.34,0,0,1,0,.11,2.84,2.84,0,1,0,0-.37Z" style="fill: rgb(248, 248, 248); transform-origin: 372.043px 313.496px;" id="elkrdjdg0zzee" class="animable"></path><g id="el2pqh7xtfwse" class=""><rect x="208.68" y="337.66" width="94.03" height="4.62" style="fill: rgb(166, 166, 166); transform-origin: 255.695px 339.97px; transform: rotate(-0.15deg);" class="animable" id="ela2ftbol3t2b"></rect></g><g id="el7vozfeqdx1m" class=""><rect x="208.7" y="347.96" width="66.57" height="4.62" style="fill: rgb(166, 166, 166); transform-origin: 241.985px 350.27px; transform: rotate(-0.15deg);" class="animable" id="elaxt77doywtb"></rect></g><g id="elgw4w70e9xl" class=""><rect x="289.72" y="260.22" width="46.89" height="4.62" style="fill: rgb(166, 166, 166); transform-origin: 313.165px 262.53px; transform: rotate(-0.15deg);" class="animable" id="el12c3gfe105"></rect></g><rect x="186.29" y="272.61" width="209.32" height="102.59" style="fill: #4FE27B; transform-origin: 290.95px 323.905px;" id="elpj32g0k4ry" class="animable"></rect><g id="elhkobxsqgltj" class=""><rect x="186.29" y="272.61" width="209.32" height="102.59" style="opacity: 0.2; transform-origin: 290.95px 323.905px;" class="animable" id="el83fssrol5hb"></rect></g><rect x="186.29" y="290.84" width="209.32" height="102.59" style="fill: #4FE27B; transform-origin: 290.95px 342.135px;" id="elcb2kko8surr" class="animable"></rect><g id="elpn810v62lw" class=""><rect x="186.29" y="290.84" width="209.32" height="102.59" style="opacity: 0.3; transform-origin: 290.95px 342.135px;" class="animable" id="elrpays8sh8i"></rect></g><rect x="186.29" y="309.64" width="209.32" height="83.8" style="fill: #4FE27B; transform-origin: 290.95px 351.54px;" id="ellue86wrusbr" class="animable"></rect><g id="els5qil47yst" class=""><rect x="186.29" y="309.64" width="209.32" height="83.8" style="opacity: 0.2; transform-origin: 290.95px 351.54px;" class="animable" id="elz5blczjkv89"></rect></g><path d="M389.15,441,171.06,410v-179l7,5.18a23.37,23.37,0,0,0,11.49,4.49L389.15,262Z" style="fill: #4FE27B; transform-origin: 280.105px 336px;" id="el3lsd68eqizt" class="animable"></path><g id="el3wupnalec35" class=""><rect x="171.35" y="238.63" width="1" height="2" style="fill: rgb(255, 255, 255); transform-origin: 171.85px 239.63px; transform: rotate(-51.97deg);" class="animable" id="el0agdqcc8s6en"></rect></g><path d="M375,270l-4-.45.11-1,4,.45Zm-7.06-.79-4-.45.11-1,4,.45Zm-7.06-.79-4-.45.11-1,4,.46Zm-7.06-.79-4-.45.11-1,4,.45Zm-7.06-.79-4-.45.11-1,4,.45Zm-7-.79-4-.45.11-1,4,.45Zm-7.06-.78-4-.46.11-1,4,.45Zm-7.06-.79-4-.45.11-1,4,.45Zm-7.06-.79-4-.45.11-1,4,.45Zm-7.05-.79-4-.45.11-1,4,.45Zm-7.06-.79-4-.45.12-1,4,.45Zm-7.06-.79-4-.45.11-1,4,.45Zm-7.06-.79-4-.45.11-1,4,.45Zm-7.06-.78-4-.46.11-1,4,.45ZM276.2,259l-4-.45.11-1,4,.45Zm-7.06-.79-4-.45.11-1,4,.45Zm-7.06-.79-4-.45.11-1,4,.46Zm-7.06-.79-4-.45.11-1,4,.45ZM248,255.8l-4-.45.11-1,4,.45Zm-7.05-.79-4-.45.12-1,4,.45Zm-7.06-.78-4-.46.11-1,4,.45Zm-7.06-.79-4-.45.11-1,4,.45Zm-7.06-.79-4-.45.11-1,4,.45Zm-7-.79-4-.45.11-1,4,.46Zm-7.06-.79-4-.45.11-1,4,.45Zm-7.06-.79-4-.45.11-1,4,.45Zm-7.06-.79-2.4-.26c-.56-.07-1.11-.15-1.66-.25l.18-1c.53.09,1.06.17,1.59.23l2.4.27Zm-7.07-1.26a25.07,25.07,0,0,1-3.82-1.6l.47-.89a23,23,0,0,0,3.66,1.53ZM178,245c-.33-.24-.66-.48-1-.73l-2.25-1.76.61-.79,2.25,1.76c.31.24.63.47.95.7Z" style="fill: rgb(255, 255, 255); transform-origin: 274.93px 255.86px;" id="elprr62eqdxwn" class="animable"></path><polygon points="380.58 272.06 379.58 272.06 379.58 270.51 378.03 270.33 378.14 269.34 380.58 269.61 380.58 272.06" style="fill: rgb(255, 255, 255); transform-origin: 379.305px 270.7px;" id="elmevt32ec13r" class="animable"></polygon><path d="M380.58,427.89h-1v-4.05h1Zm0-7.09h-1v-4.05h1Zm0-7.08h-1v-4.05h1Zm0-7.08h-1v-4.05h1Zm0-7.09h-1v-4h1Zm0-7.08h-1v-4.05h1Zm0-7.08h-1v-4.05h1Zm0-7.09h-1v-4h1Zm0-7.08h-1v-4.05h1Zm0-7.08h-1v-4.05h1Zm0-7.08h-1V353h1Zm0-7.09h-1v-4h1Zm0-7.08h-1v-4.05h1Zm0-7.08h-1v-4.05h1Zm0-7.09h-1v-4h1Zm0-7.08h-1v-4.05h1Zm0-7.08h-1v-4.05h1Zm0-7.09h-1v-4h1Zm0-7.08h-1v-4.05h1Zm0-7.08h-1v-4.05h1Zm0-7.08h-1v-4.05h1Zm0-7.09h-1v-4h1Z" style="fill: rgb(255, 255, 255); transform-origin: 380.08px 351.515px;" id="elmvvl6ym48pa" class="animable"></path><polygon points="380.58 433.5 378.02 433.12 378.17 432.13 379.58 432.34 379.58 430.92 380.58 430.92 380.58 433.5" style="fill: rgb(255, 255, 255); transform-origin: 379.3px 432.21px;" id="el61ddcthkh78" class="animable"></polygon><path d="M375,432.68l-4-.59.14-1,4,.59Zm-7-1-4-.59.15-1,4,.59Zm-7-1-4-.59.15-1,4,.59Zm-7-1-4-.59.15-1,4,.59Zm-7-1-4-.59.14-1,4,.59Zm-7-1-4-.59.14-1,4,.59Zm-7-1-4-.59.15-1,4,.59Zm-7-1-4-.59.15-1,4,.59Zm-7-1-4-.59.15-1,4,.59Zm-7-1-4-.59.15-1,4,.6Zm-7-1-4-.59.14-1,4,.59Zm-7-1-4-.59.15-1,4,.59Zm-7-1-4-.59.15-1,4,.59Zm-7-1-4-.59.15-1,4,.6Zm-7-1-4-.59.15-1,4,.59Zm-7-1-4-.59.14-1,4,.6Zm-7-1-4-.59.14-1,4,.59Zm-7-1-4-.59.15-1,4,.59Zm-7-1-4-.59.15-1,4,.59Zm-7-1-4-.59.15-1,4,.6Zm-7-1-4-.59.14-1,4,.59Zm-7-1-4-.59.15-1,4,.6Zm-7-1-4-.59.15-1,4,.59Zm-7-1-4-.59.15-1,4,.6Zm-7-1-4-.59.15-1,4,.59Zm-7-1-4-.59.14-1,4,.6Zm-7-1-4-.59.15-1,4,.59Zm-7-1-4-.59.15-1,4,.6Zm-7-1-4-.59.15-1,4,.59Z" style="fill: rgb(255, 255, 255); transform-origin: 275.07px 417.885px;" id="elgxh29tvt36g" class="animable"></path><g id="eljhj5tgmpv3" class=""><rect x="171.55" y="401.02" width="1" height="2" style="fill: rgb(255, 255, 255); transform-origin: 172.05px 402.02px; transform: rotate(-81.55deg);" class="animable" id="el2e1vd9c1n0r"></rect></g><ellipse cx="361.03" cy="350.43" rx="8.69" ry="9.9" style="fill: rgb(235, 235, 235); transform-origin: 361.03px 350.43px;" id="elynowe198p7f" class="animable"></ellipse><path d="M365.08,350.43a4.08,4.08,0,1,1-4.05-4.6A4.35,4.35,0,0,1,365.08,350.43Z" style="fill: rgb(219, 219, 219); transform-origin: 361.021px 349.91px;" id="el096tj39zfglk" class="animable"></path></g><g id="freepik--Coins--inject-7" class="animable" style="transform-origin: 211.982px 254.783px;"><path d="M341.17,392.76c41.46,7.44,30.51,68.85-11,61.4S299.65,385.31,341.17,392.76Z" style="fill: #4FE27B; transform-origin: 335.658px 423.46px;" id="elbplj6v9jjx" class="animable"></path><g id="elbfy9yqr1r6" class=""><path d="M341.17,392.76c41.46,7.44,30.51,68.85-11,61.4S299.65,385.31,341.17,392.76Z" style="opacity: 0.2; transform-origin: 335.658px 423.46px;" class="animable" id="elsp8ca0ogoa"></path></g><path d="M337.28,392.06c39.51,7.09,28.55,68.5-11,61.4S297.7,385,337.28,392.06Z" style="fill: #4FE27B; transform-origin: 331.767px 422.763px;" id="el9q2o633uz0q" class="animable"></path><g id="elkrvzbd5zg18" class=""><path d="M337.28,392.06c39.51,7.09,28.55,68.5-11,61.4S297.7,385,337.28,392.06Z" style="opacity: 0.1; transform-origin: 331.767px 422.763px;" class="animable" id="elj2jvtokay9q"></path></g><g id="el7c4mv0mtl3" class=""><path d="M306.71,424.21c.21,10.94,6.58,21.54,20.49,24,32.84,5.9,41.93-45.08,9.14-51-.21,0-.42-.08-.64-.1,30.75,6.15,21.93,54.39-9.38,48.77C313.55,443.66,307.39,434.22,306.71,424.21Z" style="opacity: 0.1; transform-origin: 331.78px 422.897px;" class="animable" id="elwsy6jyqi7b"></path></g><g id="el2qlo2jfsr8r" class=""><g style="opacity: 0.1; transform-origin: 330.04px 421.83px;" class="animable" id="el1yf1t57wdmv"><path d="M335.18,403.65a1.05,1.05,0,0,1,.76,1.26l-.42,1.69a14.23,14.23,0,0,1,6.77,4.82,1.2,1.2,0,0,1,.34,1.12,1.1,1.1,0,0,1-1.35.77,1,1,0,0,1-.69-.48,12.34,12.34,0,0,0-5.64-4.31L332,420.31c6.07,2.95,8.17,6,7.14,10.15-1.12,4.47-5.66,6.69-11,5.55l-.82,3.28a1,1,0,0,1-2-.5l.83-3.33a16.34,16.34,0,0,1-8.46-6.45,1.1,1.1,0,1,1,1.76-1.31,14.05,14.05,0,0,0,7.26,5.89l3-12c-6-3-8-5.94-7-10.15s5.58-6.58,10.75-5.42l.4-1.6A1,1,0,0,1,335.18,403.65Zm-4.92,15.78,2.87-11.5c-4.11-.94-7.41.83-8.17,3.87C324.25,414.66,325.15,416.77,330.26,419.43Zm1.21,3-2.9,11.63c4.24,1,7.59-.79,8.39-4C337.68,427.19,336.65,425.05,331.47,422.46Z" id="el4goubvarqvi" class="animable" style="transform-origin: 330.04px 421.83px;"></path></g></g><path d="M240.45,54.78c-41.59,0-41.66,59.15,0,59.15S282.11,54.78,240.45,54.78Z" style="fill: #4FE27B; transform-origin: 240.463px 84.355px;" id="elmdwbx3y72a" class="animable"></path><g id="elbkq3i4egkgt" class=""><path d="M240.45,54.78c-41.59,0-41.66,59.15,0,59.15S282.11,54.78,240.45,54.78Z" style="opacity: 0.1; transform-origin: 240.463px 84.355px;" class="animable" id="eld0u724a8uo4"></path></g><g id="el3mhpb5a6bj2" class=""><path d="M265.74,89.9c-2.22,10.17-10.65,19-25.3,19-34.57,0-34.51-49.09,0-49.09h.68c-32.48.6-32.32,47.09.64,47.09C255.21,106.91,263.22,99.13,265.74,89.9Z" style="opacity: 0.1; transform-origin: 240.137px 84.355px;" class="animable" id="elra9oxc4os"></path></g><g id="el17ofwdfe4b9" class=""><g style="opacity: 0.1; transform-origin: 240.195px 84.1146px;" class="animable" id="elizs4q0l27q"><path d="M240.7,66.28a1.06,1.06,0,0,1,1.08,1v1.65a15.38,15.38,0,0,1,8,2.88c.4.29.63.53.63,1a1.12,1.12,0,0,1-1.17,1,1.19,1.19,0,0,1-.81-.29,13.48,13.48,0,0,0-6.75-2.68V82.34c6.84,1.32,9.72,3.66,9.72,7.7,0,4.36-4,7.45-9.63,7.62v3.21a1.08,1.08,0,0,1-2.16,0V97.61a17.66,17.66,0,0,1-10.13-4,1.05,1.05,0,0,1-.49-.86,1.12,1.12,0,0,1,1.12-1,1.14,1.14,0,0,1,.81.29,15.17,15.17,0,0,0,8.78,3.74V84c-6.75-1.36-9.54-3.63-9.54-7.74s4-7.33,9.45-7.45V67.27A1.05,1.05,0,0,1,240.7,66.28Zm-1,15.65V70.69c-4.37.08-7.25,2.47-7.25,5.43C232.46,78.92,233.9,80.65,239.71,81.93Zm2,2.51V95.8c4.5-.08,7.42-2.47,7.42-5.6C249.11,87.36,247.54,85.63,241.69,84.44Z" id="elgem9lpzvh1" class="animable" style="transform-origin: 240.195px 84.1146px;"></path></g></g><path d="M85.55,158.25c30.28,5.44,22.28,50.29-8,44.85S55.22,152.81,85.55,158.25Z" style="fill: #4FE27B; transform-origin: 81.542px 180.675px;" id="elib9k2d3v3b" class="animable"></path><g id="elt0fxxpb8j6" class=""><path d="M85.55,158.25c30.28,5.44,22.28,50.29-8,44.85S55.22,152.81,85.55,158.25Z" style="opacity: 0.2; transform-origin: 81.542px 180.675px;" class="animable" id="eloc3oszit99"></path></g><path d="M82.71,157.74c28.85,5.18,20.85,50-8,44.85S53.8,152.56,82.71,157.74Z" style="fill: #4FE27B; transform-origin: 78.7005px 180.163px;" id="elfnoxlcgfrxm" class="animable"></path><g id="elzcknmllefoo" class=""><path d="M82.71,157.74c28.85,5.18,20.85,50-8,44.85S53.8,152.56,82.71,157.74Z" style="opacity: 0.1; transform-origin: 78.7005px 180.163px;" class="animable" id="elm9ohkv5fuji"></path></g><g id="elswc1k14ox7" class=""><path d="M60.38,181.22c.16,8,4.81,15.74,15,17.56,24,4.3,30.62-32.93,6.68-37.22l-.47-.08c22.45,4.5,16,39.73-6.85,35.62C65.38,195.43,60.88,188.53,60.38,181.22Z" style="opacity: 0.1; transform-origin: 78.7096px 180.303px;" class="animable" id="ele9k5yarinh4"></path></g><g id="elostq699rq9" class=""><g style="opacity: 0.1; transform-origin: 77.3431px 178.317px;" class="animable" id="elbwsf3zp7u04"><path d="M80.38,164.83a.77.77,0,0,1,.61.88L80.76,167a10.37,10.37,0,0,1,5.14,3.22.87.87,0,0,1,.3.8.8.8,0,0,1-1,.62.73.73,0,0,1-.52-.32,9.16,9.16,0,0,0-4.3-2.9l-1.63,8.73c4.55,1.89,6.22,4,5.65,7.09-.62,3.31-3.83,5.13-7.75,4.53l-.45,2.43a.76.76,0,1,1-1.5-.28l.46-2.46a12,12,0,0,1-6.45-4.34.79.79,0,0,1-.22-.71.83.83,0,0,1,.92-.64.78.78,0,0,1,.52.32,10.26,10.26,0,0,0,5.55,4l1.66-8.88c-4.49-1.9-6.1-4-5.52-7.1s3.78-5,7.6-4.42l.22-1.18A.77.77,0,0,1,80.38,164.83Zm-2.89,11.72L79.07,168c-3-.51-5.37.93-5.79,3.18S73.64,174.83,77.49,176.55Zm1,2.16-1.6,8.6c3.13.52,5.49-.91,5.94-3.28C83.24,181.88,82.39,180.36,78.5,178.71Z" id="ellwnm6ixtu0m" class="animable" style="transform-origin: 77.3431px 178.317px;"></path></g></g></g><defs>     <filter id="active" height="200%">         <feMorphology in="SourceAlpha" result="DILATED" operator="dilate" radius="2"></feMorphology>                <feFlood flood-color="#32DFEC" flood-opacity="1" result="PINK"></feFlood>        <feComposite in="PINK" in2="DILATED" operator="in" result="OUTLINE"></feComposite>        <feMerge>            <feMergeNode in="OUTLINE"></feMergeNode>            <feMergeNode in="SourceGraphic"></feMergeNode>        </feMerge>    </filter>    <filter id="hover" height="200%">        <feMorphology in="SourceAlpha" result="DILATED" operator="dilate" radius="2"></feMorphology>                <feFlood flood-color="#ff0000" flood-opacity="0.5" result="PINK"></feFlood>        <feComposite in="PINK" in2="DILATED" operator="in" result="OUTLINE"></feComposite>        <feMerge>            <feMergeNode in="OUTLINE"></feMergeNode>            <feMergeNode in="SourceGraphic"></feMergeNode>        </feMerge>            <feColorMatrix type="matrix" values="0   0   0   0   0                0   1   0   0   0                0   0   0   0   0                0   0   0   1   0 "></feColorMatrix>    </filter></defs></svg>